<svg width="702" height="303" viewBox="0 0 702 303" fill="none" xmlns="http://www.w3.org/2000/svg">
<rect width="702" height="303" fill="white"/>
<g filter="url(#filter0_d)">
<rect x="250" y="31" width="194" height="225" fill="#C9DFE4"/>
<rect x="250.5" y="31.5" width="193" height="224" stroke="black"/>
</g>
<g filter="url(#filter1_d)">
<rect x="30" y="31" width="194" height="225" fill="#C9DFE4"/>
<rect x="30.5" y="31.5" width="193" height="224" stroke="black"/>
</g>
<g filter="url(#filter2_d)">
<rect x="470" y="31" width="194" height="225" fill="#C9DFE4"/>
<rect x="470.5" y="31.5" width="193" height="224" stroke="black"/>
</g>
<rect x="30.5" y="31.5" width="193" height="43" fill="#C4C4C4" stroke="black"/>
<rect x="470.5" y="212.5" width="193" height="43" fill="#C4C4C4" stroke="black"/>
<rect x="250.5" y="212.5" width="193" height="43" fill="#C4C4C4" stroke="black"/>
<path d="M289.119 232.549H287.115V236H285.984V227.469H288.809C289.77 227.469 290.508 227.688 291.023 228.125C291.543 228.562 291.803 229.199 291.803 230.035C291.803 230.566 291.658 231.029 291.369 231.424C291.084 231.818 290.686 232.113 290.174 232.309L292.178 235.93V236H290.971L289.119 232.549ZM287.115 231.629H288.844C289.402 231.629 289.846 231.484 290.174 231.195C290.506 230.906 290.672 230.52 290.672 230.035C290.672 229.508 290.514 229.104 290.197 228.822C289.885 228.541 289.432 228.398 288.838 228.395H287.115V231.629ZM295.846 236.117C294.986 236.117 294.287 235.836 293.748 235.273C293.209 234.707 292.939 233.951 292.939 233.006V232.807C292.939 232.178 293.059 231.617 293.297 231.125C293.539 230.629 293.875 230.242 294.305 229.965C294.738 229.684 295.207 229.543 295.711 229.543C296.535 229.543 297.176 229.814 297.633 230.357C298.09 230.9 298.318 231.678 298.318 232.689V233.141H294.023C294.039 233.766 294.221 234.271 294.568 234.658C294.92 235.041 295.365 235.232 295.904 235.232C296.287 235.232 296.611 235.154 296.877 234.998C297.143 234.842 297.375 234.635 297.574 234.377L298.236 234.893C297.705 235.709 296.908 236.117 295.846 236.117ZM295.711 230.434C295.273 230.434 294.906 230.594 294.609 230.914C294.312 231.23 294.129 231.676 294.059 232.25H297.234V232.168C297.203 231.617 297.055 231.191 296.789 230.891C296.523 230.586 296.164 230.434 295.711 230.434ZM303.492 236C303.43 235.875 303.379 235.652 303.34 235.332C302.836 235.855 302.234 236.117 301.535 236.117C300.91 236.117 300.396 235.941 299.994 235.59C299.596 235.234 299.396 234.785 299.396 234.242C299.396 233.582 299.646 233.07 300.146 232.707C300.65 232.34 301.357 232.156 302.268 232.156H303.322V231.658C303.322 231.279 303.209 230.979 302.982 230.756C302.756 230.529 302.422 230.416 301.98 230.416C301.594 230.416 301.27 230.514 301.008 230.709C300.746 230.904 300.615 231.141 300.615 231.418H299.525C299.525 231.102 299.637 230.797 299.859 230.504C300.086 230.207 300.391 229.973 300.773 229.801C301.16 229.629 301.584 229.543 302.045 229.543C302.775 229.543 303.348 229.727 303.762 230.094C304.176 230.457 304.391 230.959 304.406 231.6V234.518C304.406 235.1 304.48 235.562 304.629 235.906V236H303.492ZM301.693 235.174C302.033 235.174 302.355 235.086 302.66 234.91C302.965 234.734 303.186 234.506 303.322 234.225V232.924H302.473C301.145 232.924 300.48 233.312 300.48 234.09C300.48 234.43 300.594 234.695 300.82 234.887C301.047 235.078 301.338 235.174 301.693 235.174ZM308.648 235.232C309.035 235.232 309.373 235.115 309.662 234.881C309.951 234.646 310.111 234.354 310.143 234.002H311.168C311.148 234.365 311.023 234.711 310.793 235.039C310.562 235.367 310.254 235.629 309.867 235.824C309.484 236.02 309.078 236.117 308.648 236.117C307.785 236.117 307.098 235.83 306.586 235.256C306.078 234.678 305.824 233.889 305.824 232.889V232.707C305.824 232.09 305.938 231.541 306.164 231.061C306.391 230.58 306.715 230.207 307.137 229.941C307.562 229.676 308.064 229.543 308.643 229.543C309.354 229.543 309.943 229.756 310.412 230.182C310.885 230.607 311.137 231.16 311.168 231.84H310.143C310.111 231.43 309.955 231.094 309.674 230.832C309.396 230.566 309.053 230.434 308.643 230.434C308.092 230.434 307.664 230.633 307.359 231.031C307.059 231.426 306.908 231.998 306.908 232.748V232.953C306.908 233.684 307.059 234.246 307.359 234.641C307.66 235.035 308.09 235.232 308.648 235.232ZM313.857 228.125V229.66H315.041V230.498H313.857V234.43C313.857 234.684 313.91 234.875 314.016 235.004C314.121 235.129 314.301 235.191 314.555 235.191C314.68 235.191 314.852 235.168 315.07 235.121V236C314.785 236.078 314.508 236.117 314.238 236.117C313.754 236.117 313.389 235.971 313.143 235.678C312.896 235.385 312.773 234.969 312.773 234.43V230.498H311.619V229.66H312.773V228.125H313.857ZM324.164 232.232H320.584V236H319.459V227.469H324.744V228.395H320.584V231.312H324.164V232.232ZM325.506 232.771C325.506 232.15 325.627 231.592 325.869 231.096C326.115 230.6 326.455 230.217 326.889 229.947C327.326 229.678 327.824 229.543 328.383 229.543C329.246 229.543 329.943 229.842 330.475 230.439C331.01 231.037 331.277 231.832 331.277 232.824V232.9C331.277 233.518 331.158 234.072 330.92 234.564C330.686 235.053 330.348 235.434 329.906 235.707C329.469 235.98 328.965 236.117 328.395 236.117C327.535 236.117 326.838 235.818 326.303 235.221C325.771 234.623 325.506 233.832 325.506 232.848V232.771ZM326.596 232.9C326.596 233.604 326.758 234.168 327.082 234.594C327.41 235.02 327.848 235.232 328.395 235.232C328.945 235.232 329.383 235.018 329.707 234.588C330.031 234.154 330.193 233.549 330.193 232.771C330.193 232.076 330.027 231.514 329.695 231.084C329.367 230.65 328.93 230.434 328.383 230.434C327.848 230.434 327.416 230.646 327.088 231.072C326.76 231.498 326.596 232.107 326.596 232.9ZM333.814 236H332.73V227H333.814V236ZM335.291 232.777C335.291 231.805 335.521 231.023 335.982 230.434C336.443 229.84 337.047 229.543 337.793 229.543C338.535 229.543 339.123 229.797 339.557 230.305V227H340.641V236H339.645L339.592 235.32C339.158 235.852 338.555 236.117 337.781 236.117C337.047 236.117 336.447 235.816 335.982 235.215C335.521 234.613 335.291 233.828 335.291 232.859V232.777ZM336.375 232.9C336.375 233.619 336.523 234.182 336.82 234.588C337.117 234.994 337.527 235.197 338.051 235.197C338.738 235.197 339.24 234.889 339.557 234.271V231.359C339.232 230.762 338.734 230.463 338.062 230.463C337.531 230.463 337.117 230.668 336.82 231.078C336.523 231.488 336.375 232.096 336.375 232.9ZM344.959 236.117C344.1 236.117 343.4 235.836 342.861 235.273C342.322 234.707 342.053 233.951 342.053 233.006V232.807C342.053 232.178 342.172 231.617 342.41 231.125C342.652 230.629 342.988 230.242 343.418 229.965C343.852 229.684 344.32 229.543 344.824 229.543C345.648 229.543 346.289 229.814 346.746 230.357C347.203 230.9 347.432 231.678 347.432 232.689V233.141H343.137C343.152 233.766 343.334 234.271 343.682 234.658C344.033 235.041 344.479 235.232 345.018 235.232C345.4 235.232 345.725 235.154 345.99 234.998C346.256 234.842 346.488 234.635 346.688 234.377L347.35 234.893C346.818 235.709 346.021 236.117 344.959 236.117ZM344.824 230.434C344.387 230.434 344.02 230.594 343.723 230.914C343.426 231.23 343.242 231.676 343.172 232.25H346.348V232.168C346.316 231.617 346.168 231.191 345.902 230.891C345.637 230.586 345.277 230.434 344.824 230.434ZM351.756 230.633C351.592 230.605 351.414 230.592 351.223 230.592C350.512 230.592 350.029 230.895 349.775 231.5V236H348.691V229.66H349.746L349.764 230.393C350.119 229.826 350.623 229.543 351.275 229.543C351.486 229.543 351.646 229.57 351.756 229.625V230.633ZM356.449 234.318C356.449 234.025 356.338 233.799 356.115 233.639C355.896 233.475 355.512 233.334 354.961 233.217C354.414 233.1 353.979 232.959 353.654 232.795C353.334 232.631 353.096 232.436 352.939 232.209C352.787 231.982 352.711 231.713 352.711 231.4C352.711 230.881 352.93 230.441 353.367 230.082C353.809 229.723 354.371 229.543 355.055 229.543C355.773 229.543 356.355 229.729 356.801 230.1C357.25 230.471 357.475 230.945 357.475 231.523H356.385C356.385 231.227 356.258 230.971 356.004 230.756C355.754 230.541 355.438 230.434 355.055 230.434C354.66 230.434 354.352 230.52 354.129 230.691C353.906 230.863 353.795 231.088 353.795 231.365C353.795 231.627 353.898 231.824 354.105 231.957C354.312 232.09 354.686 232.217 355.225 232.338C355.768 232.459 356.207 232.604 356.543 232.771C356.879 232.939 357.127 233.143 357.287 233.381C357.451 233.615 357.533 233.902 357.533 234.242C357.533 234.809 357.307 235.264 356.854 235.607C356.4 235.947 355.812 236.117 355.09 236.117C354.582 236.117 354.133 236.027 353.742 235.848C353.352 235.668 353.045 235.418 352.822 235.098C352.604 234.773 352.494 234.424 352.494 234.049H353.578C353.598 234.412 353.742 234.701 354.012 234.916C354.285 235.127 354.645 235.232 355.09 235.232C355.5 235.232 355.828 235.15 356.074 234.986C356.324 234.818 356.449 234.596 356.449 234.318ZM364.605 232.197C363.641 231.92 362.938 231.58 362.496 231.178C362.059 230.771 361.84 230.271 361.84 229.678C361.84 229.006 362.107 228.451 362.643 228.014C363.182 227.572 363.881 227.352 364.74 227.352C365.326 227.352 365.848 227.465 366.305 227.691C366.766 227.918 367.121 228.23 367.371 228.629C367.625 229.027 367.752 229.463 367.752 229.936H366.621C366.621 229.42 366.457 229.016 366.129 228.723C365.801 228.426 365.338 228.277 364.74 228.277C364.186 228.277 363.752 228.4 363.439 228.646C363.131 228.889 362.977 229.227 362.977 229.66C362.977 230.008 363.123 230.303 363.416 230.545C363.713 230.783 364.215 231.002 364.922 231.201C365.633 231.4 366.188 231.621 366.586 231.863C366.988 232.102 367.285 232.381 367.477 232.701C367.672 233.021 367.77 233.398 367.77 233.832C367.77 234.523 367.5 235.078 366.961 235.496C366.422 235.91 365.701 236.117 364.799 236.117C364.213 236.117 363.666 236.006 363.158 235.783C362.65 235.557 362.258 235.248 361.98 234.857C361.707 234.467 361.57 234.023 361.57 233.527H362.701C362.701 234.043 362.891 234.451 363.27 234.752C363.652 235.049 364.162 235.197 364.799 235.197C365.393 235.197 365.848 235.076 366.164 234.834C366.48 234.592 366.639 234.262 366.639 233.844C366.639 233.426 366.492 233.104 366.199 232.877C365.906 232.646 365.375 232.42 364.605 232.197ZM370.518 228.125V229.66H371.701V230.498H370.518V234.43C370.518 234.684 370.57 234.875 370.676 235.004C370.781 235.129 370.961 235.191 371.215 235.191C371.34 235.191 371.512 235.168 371.73 235.121V236C371.445 236.078 371.168 236.117 370.898 236.117C370.414 236.117 370.049 235.971 369.803 235.678C369.557 235.385 369.434 234.969 369.434 234.43V230.498H368.279V229.66H369.434V228.125H370.518ZM376.037 230.633C375.873 230.605 375.695 230.592 375.504 230.592C374.793 230.592 374.311 230.895 374.057 231.5V236H372.973V229.66H374.027L374.045 230.393C374.4 229.826 374.904 229.543 375.557 229.543C375.768 229.543 375.928 229.57 376.037 229.625V230.633ZM380.953 235.373C380.531 235.869 379.912 236.117 379.096 236.117C378.42 236.117 377.904 235.922 377.549 235.531C377.197 235.137 377.02 234.555 377.016 233.785V229.66H378.1V233.756C378.1 234.717 378.49 235.197 379.271 235.197C380.1 235.197 380.65 234.889 380.924 234.271V229.66H382.008V236H380.977L380.953 235.373ZM386.203 235.232C386.59 235.232 386.928 235.115 387.217 234.881C387.506 234.646 387.666 234.354 387.697 234.002H388.723C388.703 234.365 388.578 234.711 388.348 235.039C388.117 235.367 387.809 235.629 387.422 235.824C387.039 236.02 386.633 236.117 386.203 236.117C385.34 236.117 384.652 235.83 384.141 235.256C383.633 234.678 383.379 233.889 383.379 232.889V232.707C383.379 232.09 383.492 231.541 383.719 231.061C383.945 230.58 384.27 230.207 384.691 229.941C385.117 229.676 385.619 229.543 386.197 229.543C386.908 229.543 387.498 229.756 387.967 230.182C388.439 230.607 388.691 231.16 388.723 231.84H387.697C387.666 231.43 387.51 231.094 387.229 230.832C386.951 230.566 386.607 230.434 386.197 230.434C385.646 230.434 385.219 230.633 384.914 231.031C384.613 231.426 384.463 231.998 384.463 232.748V232.953C384.463 233.684 384.613 234.246 384.914 234.641C385.215 235.035 385.645 235.232 386.203 235.232ZM391.412 228.125V229.66H392.596V230.498H391.412V234.43C391.412 234.684 391.465 234.875 391.57 235.004C391.676 235.129 391.855 235.191 392.109 235.191C392.234 235.191 392.406 235.168 392.625 235.121V236C392.34 236.078 392.062 236.117 391.793 236.117C391.309 236.117 390.943 235.971 390.697 235.678C390.451 235.385 390.328 234.969 390.328 234.43V230.498H389.174V229.66H390.328V228.125H391.412ZM397.781 235.373C397.359 235.869 396.74 236.117 395.924 236.117C395.248 236.117 394.732 235.922 394.377 235.531C394.025 235.137 393.848 234.555 393.844 233.785V229.66H394.928V233.756C394.928 234.717 395.318 235.197 396.1 235.197C396.928 235.197 397.479 234.889 397.752 234.271V229.66H398.836V236H397.805L397.781 235.373ZM403.553 230.633C403.389 230.605 403.211 230.592 403.02 230.592C402.309 230.592 401.826 230.895 401.572 231.5V236H400.488V229.66H401.543L401.561 230.393C401.916 229.826 402.42 229.543 403.072 229.543C403.283 229.543 403.443 229.57 403.553 229.625V230.633ZM407.068 236.117C406.209 236.117 405.51 235.836 404.971 235.273C404.432 234.707 404.162 233.951 404.162 233.006V232.807C404.162 232.178 404.281 231.617 404.52 231.125C404.762 230.629 405.098 230.242 405.527 229.965C405.961 229.684 406.43 229.543 406.934 229.543C407.758 229.543 408.398 229.814 408.855 230.357C409.312 230.9 409.541 231.678 409.541 232.689V233.141H405.246C405.262 233.766 405.443 234.271 405.791 234.658C406.143 235.041 406.588 235.232 407.127 235.232C407.51 235.232 407.834 235.154 408.1 234.998C408.365 234.842 408.598 234.635 408.797 234.377L409.459 234.893C408.928 235.709 408.131 236.117 407.068 236.117ZM406.934 230.434C406.496 230.434 406.129 230.594 405.832 230.914C405.535 231.23 405.352 231.676 405.281 232.25H408.457V232.168C408.426 231.617 408.277 231.191 408.012 230.891C407.746 230.586 407.387 230.434 406.934 230.434Z" fill="black"/>
<rect x="30.5" y="212.5" width="193" height="43" fill="#C4C4C4" stroke="black"/>
<path d="M69.1191 232.549H67.1152V236H65.9844V227.469H68.8086C69.7695 227.469 70.5078 227.688 71.0234 228.125C71.543 228.562 71.8027 229.199 71.8027 230.035C71.8027 230.566 71.6582 231.029 71.3691 231.424C71.084 231.818 70.6855 232.113 70.1738 232.309L72.1777 235.93V236H70.9707L69.1191 232.549ZM67.1152 231.629H68.8438C69.4023 231.629 69.8457 231.484 70.1738 231.195C70.5059 230.906 70.6719 230.52 70.6719 230.035C70.6719 229.508 70.5137 229.104 70.1973 228.822C69.8848 228.541 69.4316 228.398 68.8379 228.395H67.1152V231.629ZM75.8457 236.117C74.9863 236.117 74.2871 235.836 73.748 235.273C73.209 234.707 72.9395 233.951 72.9395 233.006V232.807C72.9395 232.178 73.0586 231.617 73.2969 231.125C73.5391 230.629 73.875 230.242 74.3047 229.965C74.7383 229.684 75.207 229.543 75.7109 229.543C76.5352 229.543 77.1758 229.814 77.6328 230.357C78.0898 230.9 78.3184 231.678 78.3184 232.689V233.141H74.0234C74.0391 233.766 74.2207 234.271 74.5684 234.658C74.9199 235.041 75.3652 235.232 75.9043 235.232C76.2871 235.232 76.6113 235.154 76.877 234.998C77.1426 234.842 77.375 234.635 77.5742 234.377L78.2363 234.893C77.7051 235.709 76.9082 236.117 75.8457 236.117ZM75.7109 230.434C75.2734 230.434 74.9062 230.594 74.6094 230.914C74.3125 231.23 74.1289 231.676 74.0586 232.25H77.2344V232.168C77.2031 231.617 77.0547 231.191 76.7891 230.891C76.5234 230.586 76.1641 230.434 75.7109 230.434ZM83.4922 236C83.4297 235.875 83.3789 235.652 83.3398 235.332C82.8359 235.855 82.2344 236.117 81.5352 236.117C80.9102 236.117 80.3965 235.941 79.9941 235.59C79.5957 235.234 79.3965 234.785 79.3965 234.242C79.3965 233.582 79.6465 233.07 80.1465 232.707C80.6504 232.34 81.3574 232.156 82.2676 232.156H83.3223V231.658C83.3223 231.279 83.209 230.979 82.9824 230.756C82.7559 230.529 82.4219 230.416 81.9805 230.416C81.5938 230.416 81.2695 230.514 81.0078 230.709C80.7461 230.904 80.6152 231.141 80.6152 231.418H79.5254C79.5254 231.102 79.6367 230.797 79.8594 230.504C80.0859 230.207 80.3906 229.973 80.7734 229.801C81.1602 229.629 81.584 229.543 82.0449 229.543C82.7754 229.543 83.3477 229.727 83.7617 230.094C84.1758 230.457 84.3906 230.959 84.4062 231.6V234.518C84.4062 235.1 84.4805 235.562 84.6289 235.906V236H83.4922ZM81.6934 235.174C82.0332 235.174 82.3555 235.086 82.6602 234.91C82.9648 234.734 83.1855 234.506 83.3223 234.225V232.924H82.4727C81.1445 232.924 80.4805 233.312 80.4805 234.09C80.4805 234.43 80.5938 234.695 80.8203 234.887C81.0469 235.078 81.3379 235.174 81.6934 235.174ZM88.6484 235.232C89.0352 235.232 89.373 235.115 89.6621 234.881C89.9512 234.646 90.1113 234.354 90.1426 234.002H91.168C91.1484 234.365 91.0234 234.711 90.793 235.039C90.5625 235.367 90.2539 235.629 89.8672 235.824C89.4844 236.02 89.0781 236.117 88.6484 236.117C87.7852 236.117 87.0977 235.83 86.5859 235.256C86.0781 234.678 85.8242 233.889 85.8242 232.889V232.707C85.8242 232.09 85.9375 231.541 86.1641 231.061C86.3906 230.58 86.7148 230.207 87.1367 229.941C87.5625 229.676 88.0645 229.543 88.6426 229.543C89.3535 229.543 89.9434 229.756 90.4121 230.182C90.8848 230.607 91.1367 231.16 91.168 231.84H90.1426C90.1113 231.43 89.9551 231.094 89.6738 230.832C89.3965 230.566 89.0527 230.434 88.6426 230.434C88.0918 230.434 87.6641 230.633 87.3594 231.031C87.0586 231.426 86.9082 231.998 86.9082 232.748V232.953C86.9082 233.684 87.0586 234.246 87.3594 234.641C87.6602 235.035 88.0898 235.232 88.6484 235.232ZM93.8574 228.125V229.66H95.041V230.498H93.8574V234.43C93.8574 234.684 93.9102 234.875 94.0156 235.004C94.1211 235.129 94.3008 235.191 94.5547 235.191C94.6797 235.191 94.8516 235.168 95.0703 235.121V236C94.7852 236.078 94.5078 236.117 94.2383 236.117C93.7539 236.117 93.3887 235.971 93.1426 235.678C92.8965 235.385 92.7734 234.969 92.7734 234.43V230.498H91.6191V229.66H92.7734V228.125H93.8574ZM104.164 232.232H100.584V236H99.459V227.469H104.744V228.395H100.584V231.312H104.164V232.232ZM105.506 232.771C105.506 232.15 105.627 231.592 105.869 231.096C106.115 230.6 106.455 230.217 106.889 229.947C107.326 229.678 107.824 229.543 108.383 229.543C109.246 229.543 109.943 229.842 110.475 230.439C111.01 231.037 111.277 231.832 111.277 232.824V232.9C111.277 233.518 111.158 234.072 110.92 234.564C110.686 235.053 110.348 235.434 109.906 235.707C109.469 235.98 108.965 236.117 108.395 236.117C107.535 236.117 106.838 235.818 106.303 235.221C105.771 234.623 105.506 233.832 105.506 232.848V232.771ZM106.596 232.9C106.596 233.604 106.758 234.168 107.082 234.594C107.41 235.02 107.848 235.232 108.395 235.232C108.945 235.232 109.383 235.018 109.707 234.588C110.031 234.154 110.193 233.549 110.193 232.771C110.193 232.076 110.027 231.514 109.695 231.084C109.367 230.65 108.93 230.434 108.383 230.434C107.848 230.434 107.416 230.646 107.088 231.072C106.76 231.498 106.596 232.107 106.596 232.9ZM113.814 236H112.73V227H113.814V236ZM115.291 232.777C115.291 231.805 115.521 231.023 115.982 230.434C116.443 229.84 117.047 229.543 117.793 229.543C118.535 229.543 119.123 229.797 119.557 230.305V227H120.641V236H119.645L119.592 235.32C119.158 235.852 118.555 236.117 117.781 236.117C117.047 236.117 116.447 235.816 115.982 235.215C115.521 234.613 115.291 233.828 115.291 232.859V232.777ZM116.375 232.9C116.375 233.619 116.523 234.182 116.82 234.588C117.117 234.994 117.527 235.197 118.051 235.197C118.738 235.197 119.24 234.889 119.557 234.271V231.359C119.232 230.762 118.734 230.463 118.062 230.463C117.531 230.463 117.117 230.668 116.82 231.078C116.523 231.488 116.375 232.096 116.375 232.9ZM124.959 236.117C124.1 236.117 123.4 235.836 122.861 235.273C122.322 234.707 122.053 233.951 122.053 233.006V232.807C122.053 232.178 122.172 231.617 122.41 231.125C122.652 230.629 122.988 230.242 123.418 229.965C123.852 229.684 124.32 229.543 124.824 229.543C125.648 229.543 126.289 229.814 126.746 230.357C127.203 230.9 127.432 231.678 127.432 232.689V233.141H123.137C123.152 233.766 123.334 234.271 123.682 234.658C124.033 235.041 124.479 235.232 125.018 235.232C125.4 235.232 125.725 235.154 125.99 234.998C126.256 234.842 126.488 234.635 126.688 234.377L127.35 234.893C126.818 235.709 126.021 236.117 124.959 236.117ZM124.824 230.434C124.387 230.434 124.02 230.594 123.723 230.914C123.426 231.23 123.242 231.676 123.172 232.25H126.348V232.168C126.316 231.617 126.168 231.191 125.902 230.891C125.637 230.586 125.277 230.434 124.824 230.434ZM131.756 230.633C131.592 230.605 131.414 230.592 131.223 230.592C130.512 230.592 130.029 230.895 129.775 231.5V236H128.691V229.66H129.746L129.764 230.393C130.119 229.826 130.623 229.543 131.275 229.543C131.486 229.543 131.646 229.57 131.756 229.625V230.633ZM136.449 234.318C136.449 234.025 136.338 233.799 136.115 233.639C135.896 233.475 135.512 233.334 134.961 233.217C134.414 233.1 133.979 232.959 133.654 232.795C133.334 232.631 133.096 232.436 132.939 232.209C132.787 231.982 132.711 231.713 132.711 231.4C132.711 230.881 132.93 230.441 133.367 230.082C133.809 229.723 134.371 229.543 135.055 229.543C135.773 229.543 136.355 229.729 136.801 230.1C137.25 230.471 137.475 230.945 137.475 231.523H136.385C136.385 231.227 136.258 230.971 136.004 230.756C135.754 230.541 135.438 230.434 135.055 230.434C134.66 230.434 134.352 230.52 134.129 230.691C133.906 230.863 133.795 231.088 133.795 231.365C133.795 231.627 133.898 231.824 134.105 231.957C134.312 232.09 134.686 232.217 135.225 232.338C135.768 232.459 136.207 232.604 136.543 232.771C136.879 232.939 137.127 233.143 137.287 233.381C137.451 233.615 137.533 233.902 137.533 234.242C137.533 234.809 137.307 235.264 136.854 235.607C136.4 235.947 135.812 236.117 135.09 236.117C134.582 236.117 134.133 236.027 133.742 235.848C133.352 235.668 133.045 235.418 132.822 235.098C132.604 234.773 132.494 234.424 132.494 234.049H133.578C133.598 234.412 133.742 234.701 134.012 234.916C134.285 235.127 134.645 235.232 135.09 235.232C135.5 235.232 135.828 235.15 136.074 234.986C136.324 234.818 136.449 234.596 136.449 234.318ZM144.605 232.197C143.641 231.92 142.938 231.58 142.496 231.178C142.059 230.771 141.84 230.271 141.84 229.678C141.84 229.006 142.107 228.451 142.643 228.014C143.182 227.572 143.881 227.352 144.74 227.352C145.326 227.352 145.848 227.465 146.305 227.691C146.766 227.918 147.121 228.23 147.371 228.629C147.625 229.027 147.752 229.463 147.752 229.936H146.621C146.621 229.42 146.457 229.016 146.129 228.723C145.801 228.426 145.338 228.277 144.74 228.277C144.186 228.277 143.752 228.4 143.439 228.646C143.131 228.889 142.977 229.227 142.977 229.66C142.977 230.008 143.123 230.303 143.416 230.545C143.713 230.783 144.215 231.002 144.922 231.201C145.633 231.4 146.188 231.621 146.586 231.863C146.988 232.102 147.285 232.381 147.477 232.701C147.672 233.021 147.77 233.398 147.77 233.832C147.77 234.523 147.5 235.078 146.961 235.496C146.422 235.91 145.701 236.117 144.799 236.117C144.213 236.117 143.666 236.006 143.158 235.783C142.65 235.557 142.258 235.248 141.98 234.857C141.707 234.467 141.57 234.023 141.57 233.527H142.701C142.701 234.043 142.891 234.451 143.27 234.752C143.652 235.049 144.162 235.197 144.799 235.197C145.393 235.197 145.848 235.076 146.164 234.834C146.48 234.592 146.639 234.262 146.639 233.844C146.639 233.426 146.492 233.104 146.199 232.877C145.906 232.646 145.375 232.42 144.605 232.197ZM150.518 228.125V229.66H151.701V230.498H150.518V234.43C150.518 234.684 150.57 234.875 150.676 235.004C150.781 235.129 150.961 235.191 151.215 235.191C151.34 235.191 151.512 235.168 151.73 235.121V236C151.445 236.078 151.168 236.117 150.898 236.117C150.414 236.117 150.049 235.971 149.803 235.678C149.557 235.385 149.434 234.969 149.434 234.43V230.498H148.279V229.66H149.434V228.125H150.518ZM156.037 230.633C155.873 230.605 155.695 230.592 155.504 230.592C154.793 230.592 154.311 230.895 154.057 231.5V236H152.973V229.66H154.027L154.045 230.393C154.4 229.826 154.904 229.543 155.557 229.543C155.768 229.543 155.928 229.57 156.037 229.625V230.633ZM160.953 235.373C160.531 235.869 159.912 236.117 159.096 236.117C158.42 236.117 157.904 235.922 157.549 235.531C157.197 235.137 157.02 234.555 157.016 233.785V229.66H158.1V233.756C158.1 234.717 158.49 235.197 159.271 235.197C160.1 235.197 160.65 234.889 160.924 234.271V229.66H162.008V236H160.977L160.953 235.373ZM166.203 235.232C166.59 235.232 166.928 235.115 167.217 234.881C167.506 234.646 167.666 234.354 167.697 234.002H168.723C168.703 234.365 168.578 234.711 168.348 235.039C168.117 235.367 167.809 235.629 167.422 235.824C167.039 236.02 166.633 236.117 166.203 236.117C165.34 236.117 164.652 235.83 164.141 235.256C163.633 234.678 163.379 233.889 163.379 232.889V232.707C163.379 232.09 163.492 231.541 163.719 231.061C163.945 230.58 164.27 230.207 164.691 229.941C165.117 229.676 165.619 229.543 166.197 229.543C166.908 229.543 167.498 229.756 167.967 230.182C168.439 230.607 168.691 231.16 168.723 231.84H167.697C167.666 231.43 167.51 231.094 167.229 230.832C166.951 230.566 166.607 230.434 166.197 230.434C165.646 230.434 165.219 230.633 164.914 231.031C164.613 231.426 164.463 231.998 164.463 232.748V232.953C164.463 233.684 164.613 234.246 164.914 234.641C165.215 235.035 165.645 235.232 166.203 235.232ZM171.412 228.125V229.66H172.596V230.498H171.412V234.43C171.412 234.684 171.465 234.875 171.57 235.004C171.676 235.129 171.855 235.191 172.109 235.191C172.234 235.191 172.406 235.168 172.625 235.121V236C172.34 236.078 172.062 236.117 171.793 236.117C171.309 236.117 170.943 235.971 170.697 235.678C170.451 235.385 170.328 234.969 170.328 234.43V230.498H169.174V229.66H170.328V228.125H171.412ZM177.781 235.373C177.359 235.869 176.74 236.117 175.924 236.117C175.248 236.117 174.732 235.922 174.377 235.531C174.025 235.137 173.848 234.555 173.844 233.785V229.66H174.928V233.756C174.928 234.717 175.318 235.197 176.1 235.197C176.928 235.197 177.479 234.889 177.752 234.271V229.66H178.836V236H177.805L177.781 235.373ZM183.553 230.633C183.389 230.605 183.211 230.592 183.02 230.592C182.309 230.592 181.826 230.895 181.572 231.5V236H180.488V229.66H181.543L181.561 230.393C181.916 229.826 182.42 229.543 183.072 229.543C183.283 229.543 183.443 229.57 183.553 229.625V230.633ZM187.068 236.117C186.209 236.117 185.51 235.836 184.971 235.273C184.432 234.707 184.162 233.951 184.162 233.006V232.807C184.162 232.178 184.281 231.617 184.52 231.125C184.762 230.629 185.098 230.242 185.527 229.965C185.961 229.684 186.43 229.543 186.934 229.543C187.758 229.543 188.398 229.814 188.855 230.357C189.312 230.9 189.541 231.678 189.541 232.689V233.141H185.246C185.262 233.766 185.443 234.271 185.791 234.658C186.143 235.041 186.588 235.232 187.127 235.232C187.51 235.232 187.834 235.154 188.1 234.998C188.365 234.842 188.598 234.635 188.797 234.377L189.459 234.893C188.928 235.709 188.131 236.117 187.068 236.117ZM186.934 230.434C186.496 230.434 186.129 230.594 185.832 230.914C185.535 231.23 185.352 231.676 185.281 232.25H188.457V232.168C188.426 231.617 188.277 231.191 188.012 230.891C187.746 230.586 187.387 230.434 186.934 230.434Z" fill="black"/>
<path d="M508.119 232.549H506.115V236H504.984V227.469H507.809C508.77 227.469 509.508 227.688 510.023 228.125C510.543 228.562 510.803 229.199 510.803 230.035C510.803 230.566 510.658 231.029 510.369 231.424C510.084 231.818 509.686 232.113 509.174 232.309L511.178 235.93V236H509.971L508.119 232.549ZM506.115 231.629H507.844C508.402 231.629 508.846 231.484 509.174 231.195C509.506 230.906 509.672 230.52 509.672 230.035C509.672 229.508 509.514 229.104 509.197 228.822C508.885 228.541 508.432 228.398 507.838 228.395H506.115V231.629ZM514.846 236.117C513.986 236.117 513.287 235.836 512.748 235.273C512.209 234.707 511.939 233.951 511.939 233.006V232.807C511.939 232.178 512.059 231.617 512.297 231.125C512.539 230.629 512.875 230.242 513.305 229.965C513.738 229.684 514.207 229.543 514.711 229.543C515.535 229.543 516.176 229.814 516.633 230.357C517.09 230.9 517.318 231.678 517.318 232.689V233.141H513.023C513.039 233.766 513.221 234.271 513.568 234.658C513.92 235.041 514.365 235.232 514.904 235.232C515.287 235.232 515.611 235.154 515.877 234.998C516.143 234.842 516.375 234.635 516.574 234.377L517.236 234.893C516.705 235.709 515.908 236.117 514.846 236.117ZM514.711 230.434C514.273 230.434 513.906 230.594 513.609 230.914C513.312 231.23 513.129 231.676 513.059 232.25H516.234V232.168C516.203 231.617 516.055 231.191 515.789 230.891C515.523 230.586 515.164 230.434 514.711 230.434ZM522.492 236C522.43 235.875 522.379 235.652 522.34 235.332C521.836 235.855 521.234 236.117 520.535 236.117C519.91 236.117 519.396 235.941 518.994 235.59C518.596 235.234 518.396 234.785 518.396 234.242C518.396 233.582 518.646 233.07 519.146 232.707C519.65 232.34 520.357 232.156 521.268 232.156H522.322V231.658C522.322 231.279 522.209 230.979 521.982 230.756C521.756 230.529 521.422 230.416 520.98 230.416C520.594 230.416 520.27 230.514 520.008 230.709C519.746 230.904 519.615 231.141 519.615 231.418H518.525C518.525 231.102 518.637 230.797 518.859 230.504C519.086 230.207 519.391 229.973 519.773 229.801C520.16 229.629 520.584 229.543 521.045 229.543C521.775 229.543 522.348 229.727 522.762 230.094C523.176 230.457 523.391 230.959 523.406 231.6V234.518C523.406 235.1 523.48 235.562 523.629 235.906V236H522.492ZM520.693 235.174C521.033 235.174 521.355 235.086 521.66 234.91C521.965 234.734 522.186 234.506 522.322 234.225V232.924H521.473C520.145 232.924 519.48 233.312 519.48 234.09C519.48 234.43 519.594 234.695 519.82 234.887C520.047 235.078 520.338 235.174 520.693 235.174ZM527.648 235.232C528.035 235.232 528.373 235.115 528.662 234.881C528.951 234.646 529.111 234.354 529.143 234.002H530.168C530.148 234.365 530.023 234.711 529.793 235.039C529.562 235.367 529.254 235.629 528.867 235.824C528.484 236.02 528.078 236.117 527.648 236.117C526.785 236.117 526.098 235.83 525.586 235.256C525.078 234.678 524.824 233.889 524.824 232.889V232.707C524.824 232.09 524.938 231.541 525.164 231.061C525.391 230.58 525.715 230.207 526.137 229.941C526.562 229.676 527.064 229.543 527.643 229.543C528.354 229.543 528.943 229.756 529.412 230.182C529.885 230.607 530.137 231.16 530.168 231.84H529.143C529.111 231.43 528.955 231.094 528.674 230.832C528.396 230.566 528.053 230.434 527.643 230.434C527.092 230.434 526.664 230.633 526.359 231.031C526.059 231.426 525.908 231.998 525.908 232.748V232.953C525.908 233.684 526.059 234.246 526.359 234.641C526.66 235.035 527.09 235.232 527.648 235.232ZM532.857 228.125V229.66H534.041V230.498H532.857V234.43C532.857 234.684 532.91 234.875 533.016 235.004C533.121 235.129 533.301 235.191 533.555 235.191C533.68 235.191 533.852 235.168 534.07 235.121V236C533.785 236.078 533.508 236.117 533.238 236.117C532.754 236.117 532.389 235.971 532.143 235.678C531.896 235.385 531.773 234.969 531.773 234.43V230.498H530.619V229.66H531.773V228.125H532.857ZM543.164 232.232H539.584V236H538.459V227.469H543.744V228.395H539.584V231.312H543.164V232.232ZM544.506 232.771C544.506 232.15 544.627 231.592 544.869 231.096C545.115 230.6 545.455 230.217 545.889 229.947C546.326 229.678 546.824 229.543 547.383 229.543C548.246 229.543 548.943 229.842 549.475 230.439C550.01 231.037 550.277 231.832 550.277 232.824V232.9C550.277 233.518 550.158 234.072 549.92 234.564C549.686 235.053 549.348 235.434 548.906 235.707C548.469 235.98 547.965 236.117 547.395 236.117C546.535 236.117 545.838 235.818 545.303 235.221C544.771 234.623 544.506 233.832 544.506 232.848V232.771ZM545.596 232.9C545.596 233.604 545.758 234.168 546.082 234.594C546.41 235.02 546.848 235.232 547.395 235.232C547.945 235.232 548.383 235.018 548.707 234.588C549.031 234.154 549.193 233.549 549.193 232.771C549.193 232.076 549.027 231.514 548.695 231.084C548.367 230.65 547.93 230.434 547.383 230.434C546.848 230.434 546.416 230.646 546.088 231.072C545.76 231.498 545.596 232.107 545.596 232.9ZM552.814 236H551.73V227H552.814V236ZM554.291 232.777C554.291 231.805 554.521 231.023 554.982 230.434C555.443 229.84 556.047 229.543 556.793 229.543C557.535 229.543 558.123 229.797 558.557 230.305V227H559.641V236H558.645L558.592 235.32C558.158 235.852 557.555 236.117 556.781 236.117C556.047 236.117 555.447 235.816 554.982 235.215C554.521 234.613 554.291 233.828 554.291 232.859V232.777ZM555.375 232.9C555.375 233.619 555.523 234.182 555.82 234.588C556.117 234.994 556.527 235.197 557.051 235.197C557.738 235.197 558.24 234.889 558.557 234.271V231.359C558.232 230.762 557.734 230.463 557.062 230.463C556.531 230.463 556.117 230.668 555.82 231.078C555.523 231.488 555.375 232.096 555.375 232.9ZM563.959 236.117C563.1 236.117 562.4 235.836 561.861 235.273C561.322 234.707 561.053 233.951 561.053 233.006V232.807C561.053 232.178 561.172 231.617 561.41 231.125C561.652 230.629 561.988 230.242 562.418 229.965C562.852 229.684 563.32 229.543 563.824 229.543C564.648 229.543 565.289 229.814 565.746 230.357C566.203 230.9 566.432 231.678 566.432 232.689V233.141H562.137C562.152 233.766 562.334 234.271 562.682 234.658C563.033 235.041 563.479 235.232 564.018 235.232C564.4 235.232 564.725 235.154 564.99 234.998C565.256 234.842 565.488 234.635 565.688 234.377L566.35 234.893C565.818 235.709 565.021 236.117 563.959 236.117ZM563.824 230.434C563.387 230.434 563.02 230.594 562.723 230.914C562.426 231.23 562.242 231.676 562.172 232.25H565.348V232.168C565.316 231.617 565.168 231.191 564.902 230.891C564.637 230.586 564.277 230.434 563.824 230.434ZM570.756 230.633C570.592 230.605 570.414 230.592 570.223 230.592C569.512 230.592 569.029 230.895 568.775 231.5V236H567.691V229.66H568.746L568.764 230.393C569.119 229.826 569.623 229.543 570.275 229.543C570.486 229.543 570.646 229.57 570.756 229.625V230.633ZM575.449 234.318C575.449 234.025 575.338 233.799 575.115 233.639C574.896 233.475 574.512 233.334 573.961 233.217C573.414 233.1 572.979 232.959 572.654 232.795C572.334 232.631 572.096 232.436 571.939 232.209C571.787 231.982 571.711 231.713 571.711 231.4C571.711 230.881 571.93 230.441 572.367 230.082C572.809 229.723 573.371 229.543 574.055 229.543C574.773 229.543 575.355 229.729 575.801 230.1C576.25 230.471 576.475 230.945 576.475 231.523H575.385C575.385 231.227 575.258 230.971 575.004 230.756C574.754 230.541 574.438 230.434 574.055 230.434C573.66 230.434 573.352 230.52 573.129 230.691C572.906 230.863 572.795 231.088 572.795 231.365C572.795 231.627 572.898 231.824 573.105 231.957C573.312 232.09 573.686 232.217 574.225 232.338C574.768 232.459 575.207 232.604 575.543 232.771C575.879 232.939 576.127 233.143 576.287 233.381C576.451 233.615 576.533 233.902 576.533 234.242C576.533 234.809 576.307 235.264 575.854 235.607C575.4 235.947 574.812 236.117 574.09 236.117C573.582 236.117 573.133 236.027 572.742 235.848C572.352 235.668 572.045 235.418 571.822 235.098C571.604 234.773 571.494 234.424 571.494 234.049H572.578C572.598 234.412 572.742 234.701 573.012 234.916C573.285 235.127 573.645 235.232 574.09 235.232C574.5 235.232 574.828 235.15 575.074 234.986C575.324 234.818 575.449 234.596 575.449 234.318ZM583.605 232.197C582.641 231.92 581.938 231.58 581.496 231.178C581.059 230.771 580.84 230.271 580.84 229.678C580.84 229.006 581.107 228.451 581.643 228.014C582.182 227.572 582.881 227.352 583.74 227.352C584.326 227.352 584.848 227.465 585.305 227.691C585.766 227.918 586.121 228.23 586.371 228.629C586.625 229.027 586.752 229.463 586.752 229.936H585.621C585.621 229.42 585.457 229.016 585.129 228.723C584.801 228.426 584.338 228.277 583.74 228.277C583.186 228.277 582.752 228.4 582.439 228.646C582.131 228.889 581.977 229.227 581.977 229.66C581.977 230.008 582.123 230.303 582.416 230.545C582.713 230.783 583.215 231.002 583.922 231.201C584.633 231.4 585.188 231.621 585.586 231.863C585.988 232.102 586.285 232.381 586.477 232.701C586.672 233.021 586.77 233.398 586.77 233.832C586.77 234.523 586.5 235.078 585.961 235.496C585.422 235.91 584.701 236.117 583.799 236.117C583.213 236.117 582.666 236.006 582.158 235.783C581.65 235.557 581.258 235.248 580.98 234.857C580.707 234.467 580.57 234.023 580.57 233.527H581.701C581.701 234.043 581.891 234.451 582.27 234.752C582.652 235.049 583.162 235.197 583.799 235.197C584.393 235.197 584.848 235.076 585.164 234.834C585.48 234.592 585.639 234.262 585.639 233.844C585.639 233.426 585.492 233.104 585.199 232.877C584.906 232.646 584.375 232.42 583.605 232.197ZM589.518 228.125V229.66H590.701V230.498H589.518V234.43C589.518 234.684 589.57 234.875 589.676 235.004C589.781 235.129 589.961 235.191 590.215 235.191C590.34 235.191 590.512 235.168 590.73 235.121V236C590.445 236.078 590.168 236.117 589.898 236.117C589.414 236.117 589.049 235.971 588.803 235.678C588.557 235.385 588.434 234.969 588.434 234.43V230.498H587.279V229.66H588.434V228.125H589.518ZM595.037 230.633C594.873 230.605 594.695 230.592 594.504 230.592C593.793 230.592 593.311 230.895 593.057 231.5V236H591.973V229.66H593.027L593.045 230.393C593.4 229.826 593.904 229.543 594.557 229.543C594.768 229.543 594.928 229.57 595.037 229.625V230.633ZM599.953 235.373C599.531 235.869 598.912 236.117 598.096 236.117C597.42 236.117 596.904 235.922 596.549 235.531C596.197 235.137 596.02 234.555 596.016 233.785V229.66H597.1V233.756C597.1 234.717 597.49 235.197 598.271 235.197C599.1 235.197 599.65 234.889 599.924 234.271V229.66H601.008V236H599.977L599.953 235.373ZM605.203 235.232C605.59 235.232 605.928 235.115 606.217 234.881C606.506 234.646 606.666 234.354 606.697 234.002H607.723C607.703 234.365 607.578 234.711 607.348 235.039C607.117 235.367 606.809 235.629 606.422 235.824C606.039 236.02 605.633 236.117 605.203 236.117C604.34 236.117 603.652 235.83 603.141 235.256C602.633 234.678 602.379 233.889 602.379 232.889V232.707C602.379 232.09 602.492 231.541 602.719 231.061C602.945 230.58 603.27 230.207 603.691 229.941C604.117 229.676 604.619 229.543 605.197 229.543C605.908 229.543 606.498 229.756 606.967 230.182C607.439 230.607 607.691 231.16 607.723 231.84H606.697C606.666 231.43 606.51 231.094 606.229 230.832C605.951 230.566 605.607 230.434 605.197 230.434C604.646 230.434 604.219 230.633 603.914 231.031C603.613 231.426 603.463 231.998 603.463 232.748V232.953C603.463 233.684 603.613 234.246 603.914 234.641C604.215 235.035 604.645 235.232 605.203 235.232ZM610.412 228.125V229.66H611.596V230.498H610.412V234.43C610.412 234.684 610.465 234.875 610.57 235.004C610.676 235.129 610.855 235.191 611.109 235.191C611.234 235.191 611.406 235.168 611.625 235.121V236C611.34 236.078 611.062 236.117 610.793 236.117C610.309 236.117 609.943 235.971 609.697 235.678C609.451 235.385 609.328 234.969 609.328 234.43V230.498H608.174V229.66H609.328V228.125H610.412ZM616.781 235.373C616.359 235.869 615.74 236.117 614.924 236.117C614.248 236.117 613.732 235.922 613.377 235.531C613.025 235.137 612.848 234.555 612.844 233.785V229.66H613.928V233.756C613.928 234.717 614.318 235.197 615.1 235.197C615.928 235.197 616.479 234.889 616.752 234.271V229.66H617.836V236H616.805L616.781 235.373ZM622.553 230.633C622.389 230.605 622.211 230.592 622.02 230.592C621.309 230.592 620.826 230.895 620.572 231.5V236H619.488V229.66H620.543L620.561 230.393C620.916 229.826 621.42 229.543 622.072 229.543C622.283 229.543 622.443 229.57 622.553 229.625V230.633ZM626.068 236.117C625.209 236.117 624.51 235.836 623.971 235.273C623.432 234.707 623.162 233.951 623.162 233.006V232.807C623.162 232.178 623.281 231.617 623.52 231.125C623.762 230.629 624.098 230.242 624.527 229.965C624.961 229.684 625.43 229.543 625.934 229.543C626.758 229.543 627.398 229.814 627.855 230.357C628.312 230.9 628.541 231.678 628.541 232.689V233.141H624.246C624.262 233.766 624.443 234.271 624.791 234.658C625.143 235.041 625.588 235.232 626.127 235.232C626.51 235.232 626.834 235.154 627.1 234.998C627.365 234.842 627.598 234.635 627.797 234.377L628.459 234.893C627.928 235.709 627.131 236.117 626.068 236.117ZM625.934 230.434C625.496 230.434 625.129 230.594 624.832 230.914C624.535 231.23 624.352 231.676 624.281 232.25H627.457V232.168C627.426 231.617 627.277 231.191 627.012 230.891C626.746 230.586 626.387 230.434 625.934 230.434Z" fill="black"/>
<path d="M92.7051 57H90.9473V53.3438H87.5195V57H85.7617V48.4688H87.5195V51.9258H90.9473V48.4688H92.7051V57ZM101.254 52.9277C101.254 53.7676 101.105 54.5039 100.809 55.1367C100.512 55.7695 100.086 56.2578 99.5312 56.6016C98.9805 56.9453 98.3477 57.1172 97.6328 57.1172C96.9258 57.1172 96.2949 56.9473 95.7402 56.6074C95.1855 56.2676 94.7559 55.7832 94.4512 55.1543C94.1465 54.5215 93.9922 53.7949 93.9883 52.9746V52.5527C93.9883 51.7129 94.1387 50.9746 94.4395 50.3379C94.7441 49.6973 95.1719 49.207 95.7227 48.8672C96.2773 48.5234 96.9102 48.3516 97.6211 48.3516C98.332 48.3516 98.9629 48.5234 99.5137 48.8672C100.068 49.207 100.496 49.6973 100.797 50.3379C101.102 50.9746 101.254 51.7109 101.254 52.5469V52.9277ZM99.4727 52.541C99.4727 51.6465 99.3125 50.9668 98.9922 50.502C98.6719 50.0371 98.2148 49.8047 97.6211 49.8047C97.0312 49.8047 96.5762 50.0352 96.2559 50.4961C95.9355 50.9531 95.7734 51.625 95.7695 52.5117V52.9277C95.7695 53.7988 95.9297 54.4746 96.25 54.9551C96.5703 55.4355 97.0312 55.6758 97.6328 55.6758C98.2227 55.6758 98.6758 55.4453 98.9922 54.9844C99.3086 54.5195 99.4688 53.8438 99.4727 52.957V52.541ZM104.828 48.4688L107.02 54.6562L109.199 48.4688H111.508V57H109.744V54.668L109.92 50.6426L107.617 57H106.41L104.113 50.6484L104.289 54.668V57H102.531V48.4688H104.828ZM118.176 53.3027H114.801V55.5879H118.762V57H113.043V48.4688H118.75V49.8926H114.801V51.9258H118.176V53.3027ZM130.686 54.7734H127.111L126.309 57H125.148L128.406 48.4688H129.391L132.654 57H131.5L130.686 54.7734ZM127.451 53.8477H130.352L128.898 49.8574L127.451 53.8477ZM133.803 57V48.4688H136.211C136.953 48.4688 137.609 48.6328 138.18 48.9609C138.75 49.2891 139.189 49.7559 139.498 50.3613C139.811 50.9668 139.969 51.6621 139.973 52.4473V52.9922C139.973 53.7969 139.816 54.502 139.504 55.1074C139.195 55.7129 138.752 56.1777 138.174 56.502C137.6 56.8262 136.93 56.9922 136.164 57H133.803ZM134.928 49.3945V56.0801H136.111C136.979 56.0801 137.652 55.8105 138.133 55.2715C138.617 54.7324 138.859 53.9648 138.859 52.9688V52.4707C138.859 51.502 138.631 50.75 138.174 50.2148C137.721 49.6758 137.076 49.4023 136.24 49.3945H134.928ZM143.131 48.4688L145.92 55.4297L148.709 48.4688H150.168V57H149.043V53.6777L149.148 50.0918L146.348 57H145.486L142.691 50.1094L142.803 53.6777V57H141.678V48.4688H143.131ZM153.361 57H152.236V48.4688H153.361V57ZM161.98 57H160.85L156.555 50.4258V57H155.424V48.4688H156.555L160.861 55.0723V48.4688H161.98V57ZM176.207 54.293C176.102 55.1953 175.768 55.8926 175.205 56.3848C174.646 56.873 173.902 57.1172 172.973 57.1172C171.965 57.1172 171.156 56.7559 170.547 56.0332C169.941 55.3105 169.639 54.3438 169.639 53.1328V52.3125C169.639 51.5195 169.779 50.8223 170.061 50.2207C170.346 49.6191 170.748 49.1582 171.268 48.8379C171.787 48.5137 172.389 48.3516 173.072 48.3516C173.979 48.3516 174.705 48.6055 175.252 49.1133C175.799 49.6172 176.117 50.3164 176.207 51.2109H175.076C174.979 50.5312 174.766 50.0391 174.438 49.7344C174.113 49.4297 173.658 49.2773 173.072 49.2773C172.354 49.2773 171.789 49.543 171.379 50.0742C170.973 50.6055 170.77 51.3613 170.77 52.3418V53.168C170.77 54.0938 170.963 54.8301 171.35 55.377C171.736 55.9238 172.277 56.1973 172.973 56.1973C173.598 56.1973 174.076 56.0566 174.408 55.7754C174.744 55.4902 174.967 54.9961 175.076 54.293H176.207ZM184.311 53.0098C184.311 53.8457 184.17 54.5762 183.889 55.2012C183.607 55.8223 183.209 56.2969 182.693 56.625C182.178 56.9531 181.576 57.1172 180.889 57.1172C180.217 57.1172 179.621 56.9531 179.102 56.625C178.582 56.293 178.178 55.8223 177.889 55.2129C177.604 54.5996 177.457 53.8906 177.449 53.0859V52.4707C177.449 51.6504 177.592 50.9258 177.877 50.2969C178.162 49.668 178.564 49.1875 179.084 48.8555C179.607 48.5195 180.205 48.3516 180.877 48.3516C181.561 48.3516 182.162 48.5176 182.682 48.8496C183.205 49.1777 183.607 49.6562 183.889 50.2852C184.17 50.9102 184.311 51.6387 184.311 52.4707V53.0098ZM183.191 52.459C183.191 51.4473 182.988 50.6719 182.582 50.1328C182.176 49.5898 181.607 49.3184 180.877 49.3184C180.166 49.3184 179.605 49.5898 179.195 50.1328C178.789 50.6719 178.58 51.4219 178.568 52.3828V53.0098C178.568 53.9902 178.773 54.7617 179.184 55.3242C179.598 55.8828 180.166 56.1621 180.889 56.1621C181.615 56.1621 182.178 55.8984 182.576 55.3711C182.975 54.8398 183.18 54.0801 183.191 53.0918V52.459ZM192.004 48.4688V54.2695C192 55.0742 191.746 55.7324 191.242 56.2441C190.742 56.7559 190.062 57.043 189.203 57.1055L188.904 57.1172C187.971 57.1172 187.227 56.8652 186.672 56.3613C186.117 55.8574 185.836 55.1641 185.828 54.2812V48.4688H186.941V54.2461C186.941 54.8633 187.111 55.3438 187.451 55.6875C187.791 56.0273 188.275 56.1973 188.904 56.1973C189.541 56.1973 190.027 56.0273 190.363 55.6875C190.703 55.3477 190.873 54.8691 190.873 54.252V48.4688H192.004ZM196.908 53.5488H194.904V57H193.773V48.4688H196.598C197.559 48.4688 198.297 48.6875 198.812 49.125C199.332 49.5625 199.592 50.1992 199.592 51.0352C199.592 51.5664 199.447 52.0293 199.158 52.4238C198.873 52.8184 198.475 53.1133 197.963 53.3086L199.967 56.9297V57H198.76L196.908 53.5488ZM194.904 52.6289H196.633C197.191 52.6289 197.635 52.4844 197.963 52.1953C198.295 51.9062 198.461 51.5195 198.461 51.0352C198.461 50.5078 198.303 50.1035 197.986 49.8223C197.674 49.541 197.221 49.3984 196.627 49.3945H194.904V52.6289ZM203.688 53.1973C202.723 52.9199 202.02 52.5801 201.578 52.1777C201.141 51.7715 200.922 51.2715 200.922 50.6777C200.922 50.0059 201.189 49.4512 201.725 49.0137C202.264 48.5723 202.963 48.3516 203.822 48.3516C204.408 48.3516 204.93 48.4648 205.387 48.6914C205.848 48.918 206.203 49.2305 206.453 49.6289C206.707 50.0273 206.834 50.4629 206.834 50.9355H205.703C205.703 50.4199 205.539 50.0156 205.211 49.7227C204.883 49.4258 204.42 49.2773 203.822 49.2773C203.268 49.2773 202.834 49.4004 202.521 49.6465C202.213 49.8887 202.059 50.2266 202.059 50.6602C202.059 51.0078 202.205 51.3027 202.498 51.5449C202.795 51.7832 203.297 52.002 204.004 52.2012C204.715 52.4004 205.27 52.6211 205.668 52.8633C206.07 53.1016 206.367 53.3809 206.559 53.7012C206.754 54.0215 206.852 54.3984 206.852 54.832C206.852 55.5234 206.582 56.0781 206.043 56.4961C205.504 56.9102 204.783 57.1172 203.881 57.1172C203.295 57.1172 202.748 57.0059 202.24 56.7832C201.732 56.5566 201.34 56.248 201.062 55.8574C200.789 55.4668 200.652 55.0234 200.652 54.5273H201.783C201.783 55.043 201.973 55.4512 202.352 55.752C202.734 56.0488 203.244 56.1973 203.881 56.1973C204.475 56.1973 204.93 56.0762 205.246 55.834C205.562 55.5918 205.721 55.2617 205.721 54.8438C205.721 54.4258 205.574 54.1035 205.281 53.877C204.988 53.6465 204.457 53.4199 203.688 53.1973ZM213.121 53.0566H209.424V56.0801H213.719V57H208.299V48.4688H213.66V49.3945H209.424V52.1367H213.121V53.0566Z" fill="black"/>
<rect x="250.5" y="31.5" width="193" height="43" fill="#C4C4C4" stroke="black"/>
<path d="M312.547 57H311.416V53.0566H307.115V57H305.99V48.4688H307.115V52.1367H311.416V48.4688H312.547V57ZM321.107 53.0098C321.107 53.8457 320.967 54.5762 320.686 55.2012C320.404 55.8223 320.006 56.2969 319.49 56.625C318.975 56.9531 318.373 57.1172 317.686 57.1172C317.014 57.1172 316.418 56.9531 315.898 56.625C315.379 56.293 314.975 55.8223 314.686 55.2129C314.4 54.5996 314.254 53.8906 314.246 53.0859V52.4707C314.246 51.6504 314.389 50.9258 314.674 50.2969C314.959 49.668 315.361 49.1875 315.881 48.8555C316.404 48.5195 317.002 48.3516 317.674 48.3516C318.357 48.3516 318.959 48.5176 319.479 48.8496C320.002 49.1777 320.404 49.6562 320.686 50.2852C320.967 50.9102 321.107 51.6387 321.107 52.4707V53.0098ZM319.988 52.459C319.988 51.4473 319.785 50.6719 319.379 50.1328C318.973 49.5898 318.404 49.3184 317.674 49.3184C316.963 49.3184 316.402 49.5898 315.992 50.1328C315.586 50.6719 315.377 51.4219 315.365 52.3828V53.0098C315.365 53.9902 315.57 54.7617 315.98 55.3242C316.395 55.8828 316.963 56.1621 317.686 56.1621C318.412 56.1621 318.975 55.8984 319.373 55.3711C319.771 54.8398 319.977 54.0801 319.988 53.0918V52.459ZM324.248 48.4688L327.037 55.4297L329.826 48.4688H331.285V57H330.16V53.6777L330.266 50.0918L327.465 57H326.604L323.809 50.1094L323.92 53.6777V57H322.795V48.4688H324.248ZM338.094 53.0566H334.396V56.0801H338.691V57H333.271V48.4688H338.633V49.3945H334.396V52.1367H338.094V53.0566ZM350.633 55.2422H347.551L346.965 57H345.096L348.271 48.4688H349.9L353.094 57H351.225L350.633 55.2422ZM348.025 53.8184H350.158L349.086 50.625L348.025 53.8184ZM353.891 57V48.4688H356.516C357.266 48.4688 357.936 48.6387 358.525 48.9785C359.119 49.3145 359.582 49.7949 359.914 50.4199C360.246 51.041 360.412 51.748 360.412 52.541V52.9336C360.412 53.7266 360.248 54.4316 359.92 55.0488C359.596 55.666 359.137 56.1445 358.543 56.4844C357.949 56.8242 357.279 56.9961 356.533 57H353.891ZM355.648 49.8926V55.5879H356.498C357.186 55.5879 357.711 55.3633 358.074 54.9141C358.438 54.4648 358.623 53.8223 358.631 52.9863V52.5352C358.631 51.668 358.451 51.0117 358.092 50.5664C357.732 50.1172 357.207 49.8926 356.516 49.8926H355.648ZM363.992 48.4688L366.184 54.6562L368.363 48.4688H370.672V57H368.908V54.668L369.084 50.6426L366.781 57H365.574L363.277 50.6484L363.453 54.668V57H361.695V48.4688H363.992ZM374.076 57H372.318V48.4688H374.076V57ZM382.648 57H380.891L377.469 51.3867V57H375.711V48.4688H377.469L380.896 54.0938V48.4688H382.648V57ZM396.652 54.293C396.547 55.1953 396.213 55.8926 395.65 56.3848C395.092 56.873 394.348 57.1172 393.418 57.1172C392.41 57.1172 391.602 56.7559 390.992 56.0332C390.387 55.3105 390.084 54.3438 390.084 53.1328V52.3125C390.084 51.5195 390.225 50.8223 390.506 50.2207C390.791 49.6191 391.193 49.1582 391.713 48.8379C392.232 48.5137 392.834 48.3516 393.518 48.3516C394.424 48.3516 395.15 48.6055 395.697 49.1133C396.244 49.6172 396.562 50.3164 396.652 51.2109H395.521C395.424 50.5312 395.211 50.0391 394.883 49.7344C394.559 49.4297 394.104 49.2773 393.518 49.2773C392.799 49.2773 392.234 49.543 391.824 50.0742C391.418 50.6055 391.215 51.3613 391.215 52.3418V53.168C391.215 54.0938 391.408 54.8301 391.795 55.377C392.182 55.9238 392.723 56.1973 393.418 56.1973C394.043 56.1973 394.521 56.0566 394.854 55.7754C395.189 55.4902 395.412 54.9961 395.521 54.293H396.652ZM404.756 53.0098C404.756 53.8457 404.615 54.5762 404.334 55.2012C404.053 55.8223 403.654 56.2969 403.139 56.625C402.623 56.9531 402.021 57.1172 401.334 57.1172C400.662 57.1172 400.066 56.9531 399.547 56.625C399.027 56.293 398.623 55.8223 398.334 55.2129C398.049 54.5996 397.902 53.8906 397.895 53.0859V52.4707C397.895 51.6504 398.037 50.9258 398.322 50.2969C398.607 49.668 399.01 49.1875 399.529 48.8555C400.053 48.5195 400.65 48.3516 401.322 48.3516C402.006 48.3516 402.607 48.5176 403.127 48.8496C403.65 49.1777 404.053 49.6562 404.334 50.2852C404.615 50.9102 404.756 51.6387 404.756 52.4707V53.0098ZM403.637 52.459C403.637 51.4473 403.434 50.6719 403.027 50.1328C402.621 49.5898 402.053 49.3184 401.322 49.3184C400.611 49.3184 400.051 49.5898 399.641 50.1328C399.234 50.6719 399.025 51.4219 399.014 52.3828V53.0098C399.014 53.9902 399.219 54.7617 399.629 55.3242C400.043 55.8828 400.611 56.1621 401.334 56.1621C402.061 56.1621 402.623 55.8984 403.021 55.3711C403.42 54.8398 403.625 54.0801 403.637 53.0918V52.459ZM412.449 48.4688V54.2695C412.445 55.0742 412.191 55.7324 411.688 56.2441C411.188 56.7559 410.508 57.043 409.648 57.1055L409.35 57.1172C408.416 57.1172 407.672 56.8652 407.117 56.3613C406.562 55.8574 406.281 55.1641 406.273 54.2812V48.4688H407.387V54.2461C407.387 54.8633 407.557 55.3438 407.896 55.6875C408.236 56.0273 408.721 56.1973 409.35 56.1973C409.986 56.1973 410.473 56.0273 410.809 55.6875C411.148 55.3477 411.318 54.8691 411.318 54.252V48.4688H412.449ZM417.354 53.5488H415.35V57H414.219V48.4688H417.043C418.004 48.4688 418.742 48.6875 419.258 49.125C419.777 49.5625 420.037 50.1992 420.037 51.0352C420.037 51.5664 419.893 52.0293 419.604 52.4238C419.318 52.8184 418.92 53.1133 418.408 53.3086L420.412 56.9297V57H419.205L417.354 53.5488ZM415.35 52.6289H417.078C417.637 52.6289 418.08 52.4844 418.408 52.1953C418.74 51.9062 418.906 51.5195 418.906 51.0352C418.906 50.5078 418.748 50.1035 418.432 49.8223C418.119 49.541 417.666 49.3984 417.072 49.3945H415.35V52.6289ZM424.133 53.1973C423.168 52.9199 422.465 52.5801 422.023 52.1777C421.586 51.7715 421.367 51.2715 421.367 50.6777C421.367 50.0059 421.635 49.4512 422.17 49.0137C422.709 48.5723 423.408 48.3516 424.268 48.3516C424.854 48.3516 425.375 48.4648 425.832 48.6914C426.293 48.918 426.648 49.2305 426.898 49.6289C427.152 50.0273 427.279 50.4629 427.279 50.9355H426.148C426.148 50.4199 425.984 50.0156 425.656 49.7227C425.328 49.4258 424.865 49.2773 424.268 49.2773C423.713 49.2773 423.279 49.4004 422.967 49.6465C422.658 49.8887 422.504 50.2266 422.504 50.6602C422.504 51.0078 422.65 51.3027 422.943 51.5449C423.24 51.7832 423.742 52.002 424.449 52.2012C425.16 52.4004 425.715 52.6211 426.113 52.8633C426.516 53.1016 426.812 53.3809 427.004 53.7012C427.199 54.0215 427.297 54.3984 427.297 54.832C427.297 55.5234 427.027 56.0781 426.488 56.4961C425.949 56.9102 425.229 57.1172 424.326 57.1172C423.74 57.1172 423.193 57.0059 422.686 56.7832C422.178 56.5566 421.785 56.248 421.508 55.8574C421.234 55.4668 421.098 55.0234 421.098 54.5273H422.229C422.229 55.043 422.418 55.4512 422.797 55.752C423.18 56.0488 423.689 56.1973 424.326 56.1973C424.92 56.1973 425.375 56.0762 425.691 55.834C426.008 55.5918 426.166 55.2617 426.166 54.8438C426.166 54.4258 426.02 54.1035 425.727 53.877C425.434 53.6465 424.902 53.4199 424.133 53.1973ZM433.566 53.0566H429.869V56.0801H434.164V57H428.744V48.4688H434.105V49.3945H429.869V52.1367H433.566V53.0566Z" fill="black"/>
<rect x="470.5" y="31.5" width="193" height="43" fill="#C4C4C4" stroke="black"/>
<path d="M533.547 57H532.416V53.0566H528.115V57H526.99V48.4688H528.115V52.1367H532.416V48.4688H533.547V57ZM542.107 53.0098C542.107 53.8457 541.967 54.5762 541.686 55.2012C541.404 55.8223 541.006 56.2969 540.49 56.625C539.975 56.9531 539.373 57.1172 538.686 57.1172C538.014 57.1172 537.418 56.9531 536.898 56.625C536.379 56.293 535.975 55.8223 535.686 55.2129C535.4 54.5996 535.254 53.8906 535.246 53.0859V52.4707C535.246 51.6504 535.389 50.9258 535.674 50.2969C535.959 49.668 536.361 49.1875 536.881 48.8555C537.404 48.5195 538.002 48.3516 538.674 48.3516C539.357 48.3516 539.959 48.5176 540.479 48.8496C541.002 49.1777 541.404 49.6562 541.686 50.2852C541.967 50.9102 542.107 51.6387 542.107 52.4707V53.0098ZM540.988 52.459C540.988 51.4473 540.785 50.6719 540.379 50.1328C539.973 49.5898 539.404 49.3184 538.674 49.3184C537.963 49.3184 537.402 49.5898 536.992 50.1328C536.586 50.6719 536.377 51.4219 536.365 52.3828V53.0098C536.365 53.9902 536.57 54.7617 536.98 55.3242C537.395 55.8828 537.963 56.1621 538.686 56.1621C539.412 56.1621 539.975 55.8984 540.373 55.3711C540.771 54.8398 540.977 54.0801 540.988 53.0918V52.459ZM545.248 48.4688L548.037 55.4297L550.826 48.4688H552.285V57H551.16V53.6777L551.266 50.0918L548.465 57H547.604L544.809 50.1094L544.92 53.6777V57H543.795V48.4688H545.248ZM559.094 53.0566H555.396V56.0801H559.691V57H554.271V48.4688H559.633V49.3945H555.396V52.1367H559.094V53.0566ZM571.756 54.7734H568.182L567.379 57H566.219L569.477 48.4688H570.461L573.725 57H572.57L571.756 54.7734ZM568.521 53.8477H571.422L569.969 49.8574L568.521 53.8477ZM574.873 57V48.4688H577.281C578.023 48.4688 578.68 48.6328 579.25 48.9609C579.82 49.2891 580.26 49.7559 580.568 50.3613C580.881 50.9668 581.039 51.6621 581.043 52.4473V52.9922C581.043 53.7969 580.887 54.502 580.574 55.1074C580.266 55.7129 579.822 56.1777 579.244 56.502C578.67 56.8262 578 56.9922 577.234 57H574.873ZM575.998 49.3945V56.0801H577.182C578.049 56.0801 578.723 55.8105 579.203 55.2715C579.688 54.7324 579.93 53.9648 579.93 52.9688V52.4707C579.93 51.502 579.701 50.75 579.244 50.2148C578.791 49.6758 578.146 49.4023 577.311 49.3945H575.998ZM584.201 48.4688L586.99 55.4297L589.779 48.4688H591.238V57H590.113V53.6777L590.219 50.0918L587.418 57H586.557L583.762 50.1094L583.873 53.6777V57H582.748V48.4688H584.201ZM594.432 57H593.307V48.4688H594.432V57ZM603.051 57H601.92L597.625 50.4258V57H596.494V48.4688H597.625L601.932 55.0723V48.4688H603.051V57ZM617.482 54.1582C617.416 55.0762 617.076 55.7988 616.463 56.3262C615.854 56.8535 615.049 57.1172 614.049 57.1172C612.955 57.1172 612.094 56.75 611.465 56.0156C610.84 55.2773 610.527 54.2656 610.527 52.9805V52.459C610.527 51.6387 610.672 50.916 610.961 50.291C611.25 49.666 611.662 49.1875 612.197 48.8555C612.736 48.5195 613.361 48.3516 614.072 48.3516C615.057 48.3516 615.85 48.6152 616.451 49.1426C617.053 49.6699 617.4 50.4102 617.494 51.3633H615.736C615.693 50.8125 615.539 50.4141 615.273 50.168C615.012 49.918 614.611 49.793 614.072 49.793C613.486 49.793 613.047 50.0039 612.754 50.4258C612.465 50.8438 612.316 51.4941 612.309 52.377V53.0215C612.309 53.9434 612.447 54.6172 612.725 55.043C613.006 55.4688 613.447 55.6816 614.049 55.6816C614.592 55.6816 614.996 55.5586 615.262 55.3125C615.531 55.0625 615.686 54.6777 615.725 54.1582H617.482ZM625.645 52.9277C625.645 53.7676 625.496 54.5039 625.199 55.1367C624.902 55.7695 624.477 56.2578 623.922 56.6016C623.371 56.9453 622.738 57.1172 622.023 57.1172C621.316 57.1172 620.686 56.9473 620.131 56.6074C619.576 56.2676 619.146 55.7832 618.842 55.1543C618.537 54.5215 618.383 53.7949 618.379 52.9746V52.5527C618.379 51.7129 618.529 50.9746 618.83 50.3379C619.135 49.6973 619.562 49.207 620.113 48.8672C620.668 48.5234 621.301 48.3516 622.012 48.3516C622.723 48.3516 623.354 48.5234 623.904 48.8672C624.459 49.207 624.887 49.6973 625.188 50.3379C625.492 50.9746 625.645 51.7109 625.645 52.5469V52.9277ZM623.863 52.541C623.863 51.6465 623.703 50.9668 623.383 50.502C623.062 50.0371 622.605 49.8047 622.012 49.8047C621.422 49.8047 620.967 50.0352 620.646 50.4961C620.326 50.9531 620.164 51.625 620.16 52.5117V52.9277C620.16 53.7988 620.32 54.4746 620.641 54.9551C620.961 55.4355 621.422 55.6758 622.023 55.6758C622.613 55.6758 623.066 55.4453 623.383 54.9844C623.699 54.5195 623.859 53.8438 623.863 52.957V52.541ZM633.379 48.4688V54.0879C633.379 55.0215 633.086 55.7598 632.5 56.3027C631.918 56.8457 631.121 57.1172 630.109 57.1172C629.113 57.1172 628.322 56.8535 627.736 56.3262C627.15 55.7988 626.852 55.0742 626.84 54.1523V48.4688H628.598V54.0996C628.598 54.6582 628.73 55.0664 628.996 55.3242C629.266 55.5781 629.637 55.7051 630.109 55.7051C631.098 55.7051 631.6 55.1855 631.615 54.1465V48.4688H633.379ZM637.979 53.877H636.578V57H634.82V48.4688H637.99C638.998 48.4688 639.775 48.6934 640.322 49.1426C640.869 49.5918 641.143 50.2266 641.143 51.0469C641.143 51.6289 641.016 52.1152 640.762 52.5059C640.512 52.8926 640.131 53.2012 639.619 53.4316L641.465 56.918V57H639.578L637.979 53.877ZM636.578 52.4531H637.996C638.438 52.4531 638.779 52.3418 639.021 52.1191C639.264 51.8926 639.385 51.582 639.385 51.1875C639.385 50.7852 639.27 50.4688 639.039 50.2383C638.812 50.0078 638.463 49.8926 637.99 49.8926H636.578V52.4531ZM646.908 54.7617C646.908 54.4297 646.791 54.1758 646.557 54C646.322 53.8203 645.9 53.6328 645.291 53.4375C644.682 53.2383 644.199 53.043 643.844 52.8516C642.875 52.3281 642.391 51.623 642.391 50.7363C642.391 50.2754 642.52 49.8652 642.777 49.5059C643.039 49.1426 643.412 48.8594 643.896 48.6562C644.385 48.4531 644.932 48.3516 645.537 48.3516C646.146 48.3516 646.689 48.4629 647.166 48.6855C647.643 48.9043 648.012 49.2148 648.273 49.6172C648.539 50.0195 648.672 50.4766 648.672 50.9883H646.914C646.914 50.5977 646.791 50.2949 646.545 50.0801C646.299 49.8613 645.953 49.752 645.508 49.752C645.078 49.752 644.744 49.8438 644.506 50.0273C644.268 50.207 644.148 50.4453 644.148 50.7422C644.148 51.0195 644.287 51.252 644.564 51.4395C644.846 51.627 645.258 51.8027 645.801 51.9668C646.801 52.2676 647.529 52.6406 647.986 53.0859C648.443 53.5312 648.672 54.0859 648.672 54.75C648.672 55.4883 648.393 56.0684 647.834 56.4902C647.275 56.9082 646.523 57.1172 645.578 57.1172C644.922 57.1172 644.324 56.998 643.785 56.7598C643.246 56.5176 642.834 56.1875 642.549 55.7695C642.268 55.3516 642.127 54.8672 642.127 54.3164H643.891C643.891 55.2578 644.453 55.7285 645.578 55.7285C645.996 55.7285 646.322 55.6445 646.557 55.4766C646.791 55.3047 646.908 55.0664 646.908 54.7617ZM655 53.3027H651.625V55.5879H655.586V57H649.867V48.4688H655.574V49.8926H651.625V51.9258H655V53.3027Z" fill="black"/>
<path d="M98.6406 155H95.248V143.17H82.3457V155H78.9707V129.406H82.3457V140.41H95.248V129.406H98.6406V155ZM124.322 143.029C124.322 145.537 123.9 147.729 123.057 149.604C122.213 151.467 121.018 152.891 119.471 153.875C117.924 154.859 116.119 155.352 114.057 155.352C112.041 155.352 110.254 154.859 108.695 153.875C107.137 152.879 105.924 151.467 105.057 149.639C104.201 147.799 103.762 145.672 103.738 143.258V141.412C103.738 138.951 104.166 136.777 105.021 134.891C105.877 133.004 107.084 131.562 108.643 130.566C110.213 129.559 112.006 129.055 114.021 129.055C116.072 129.055 117.877 129.553 119.436 130.549C121.006 131.533 122.213 132.969 123.057 134.855C123.9 136.73 124.322 138.916 124.322 141.412V143.029ZM120.965 141.377C120.965 138.342 120.355 136.016 119.137 134.398C117.918 132.77 116.213 131.955 114.021 131.955C111.889 131.955 110.207 132.77 108.977 134.398C107.758 136.016 107.131 138.266 107.096 141.148V143.029C107.096 145.971 107.711 148.285 108.941 149.973C110.184 151.648 111.889 152.486 114.057 152.486C116.236 152.486 117.924 151.695 119.119 150.113C120.314 148.52 120.93 146.24 120.965 143.275V141.377ZM133.744 129.406L142.111 150.289L150.479 129.406H154.855V155H151.48V145.033L151.797 134.275L143.395 155H140.811L132.426 134.328L132.76 145.033V155H129.385V129.406H133.744ZM175.281 143.17H164.189V152.24H177.074V155H160.814V129.406H176.898V132.184H164.189V140.41H175.281V143.17Z" fill="black"/>
<path d="M98.6406 155H95.248V143.17H82.3457V155H78.9707V129.406H82.3457V140.41H95.248V129.406H98.6406V155ZM124.322 143.029C124.322 145.537 123.9 147.729 123.057 149.604C122.213 151.467 121.018 152.891 119.471 153.875C117.924 154.859 116.119 155.352 114.057 155.352C112.041 155.352 110.254 154.859 108.695 153.875C107.137 152.879 105.924 151.467 105.057 149.639C104.201 147.799 103.762 145.672 103.738 143.258V141.412C103.738 138.951 104.166 136.777 105.021 134.891C105.877 133.004 107.084 131.562 108.643 130.566C110.213 129.559 112.006 129.055 114.021 129.055C116.072 129.055 117.877 129.553 119.436 130.549C121.006 131.533 122.213 132.969 123.057 134.855C123.9 136.73 124.322 138.916 124.322 141.412V143.029ZM120.965 141.377C120.965 138.342 120.355 136.016 119.137 134.398C117.918 132.77 116.213 131.955 114.021 131.955C111.889 131.955 110.207 132.77 108.977 134.398C107.758 136.016 107.131 138.266 107.096 141.148V143.029C107.096 145.971 107.711 148.285 108.941 149.973C110.184 151.648 111.889 152.486 114.057 152.486C116.236 152.486 117.924 151.695 119.119 150.113C120.314 148.52 120.93 146.24 120.965 143.275V141.377ZM133.744 129.406L142.111 150.289L150.479 129.406H154.855V155H151.48V145.033L151.797 134.275L143.395 155H140.811L132.426 134.328L132.76 145.033V155H129.385V129.406H133.744ZM175.281 143.17H164.189V152.24H177.074V155H160.814V129.406H176.898V132.184H164.189V140.41H175.281V143.17Z" fill="black"/>
<path d="M307.104 148.32H296.381L293.973 155H290.492L300.266 129.406H303.219L313.01 155H309.547L307.104 148.32ZM297.4 145.543H306.102L301.742 133.572L297.4 145.543ZM316.455 155V129.406H323.68C325.906 129.406 327.875 129.898 329.586 130.883C331.297 131.867 332.615 133.268 333.541 135.084C334.479 136.9 334.953 138.986 334.965 141.342V142.977C334.965 145.391 334.496 147.506 333.559 149.322C332.633 151.139 331.303 152.533 329.568 153.506C327.846 154.479 325.836 154.977 323.539 155H316.455ZM319.83 132.184V152.24H323.381C325.982 152.24 328.004 151.432 329.445 149.814C330.898 148.197 331.625 145.895 331.625 142.906V141.412C331.625 138.506 330.939 136.25 329.568 134.645C328.209 133.027 326.275 132.207 323.768 132.184H319.83ZM344.439 129.406L352.807 150.289L361.174 129.406H365.551V155H362.176V145.033L362.492 134.275L354.09 155H351.506L343.121 134.328L343.455 145.033V155H340.08V129.406H344.439ZM375.131 155H371.756V129.406H375.131V155ZM400.988 155H397.596L384.711 135.277V155H381.318V129.406H384.711L397.631 149.217V129.406H400.988V155Z" fill="black"/>
<path d="M525.797 146.879C525.48 149.586 524.479 151.678 522.791 153.154C521.115 154.619 518.883 155.352 516.094 155.352C513.07 155.352 510.645 154.268 508.816 152.1C507 149.932 506.092 147.031 506.092 143.398V140.938C506.092 138.559 506.514 136.467 507.357 134.662C508.213 132.857 509.42 131.475 510.979 130.514C512.537 129.541 514.342 129.055 516.393 129.055C519.111 129.055 521.291 129.816 522.932 131.34C524.572 132.852 525.527 134.949 525.797 137.633H522.404C522.111 135.594 521.473 134.117 520.488 133.203C519.516 132.289 518.15 131.832 516.393 131.832C514.236 131.832 512.543 132.629 511.312 134.223C510.094 135.816 509.484 138.084 509.484 141.025V143.504C509.484 146.281 510.064 148.49 511.225 150.131C512.385 151.771 514.008 152.592 516.094 152.592C517.969 152.592 519.404 152.17 520.4 151.326C521.408 150.471 522.076 148.988 522.404 146.879H525.797ZM550.107 143.029C550.107 145.537 549.686 147.729 548.842 149.604C547.998 151.467 546.803 152.891 545.256 153.875C543.709 154.859 541.904 155.352 539.842 155.352C537.826 155.352 536.039 154.859 534.48 153.875C532.922 152.879 531.709 151.467 530.842 149.639C529.986 147.799 529.547 145.672 529.523 143.258V141.412C529.523 138.951 529.951 136.777 530.807 134.891C531.662 133.004 532.869 131.562 534.428 130.566C535.998 129.559 537.791 129.055 539.807 129.055C541.857 129.055 543.662 129.553 545.221 130.549C546.791 131.533 547.998 132.969 548.842 134.855C549.686 136.73 550.107 138.916 550.107 141.412V143.029ZM546.75 141.377C546.75 138.342 546.141 136.016 544.922 134.398C543.703 132.77 541.998 131.955 539.807 131.955C537.674 131.955 535.992 132.77 534.762 134.398C533.543 136.016 532.916 138.266 532.881 141.148V143.029C532.881 145.971 533.496 148.285 534.727 149.973C535.969 151.648 537.674 152.486 539.842 152.486C542.021 152.486 543.709 151.695 544.904 150.113C546.1 148.52 546.715 146.24 546.75 143.275V141.377ZM573.188 129.406V146.809C573.176 149.223 572.414 151.197 570.902 152.732C569.402 154.268 567.363 155.129 564.785 155.316L563.889 155.352C561.088 155.352 558.855 154.596 557.191 153.084C555.527 151.572 554.684 149.492 554.66 146.844V129.406H558V146.738C558 148.59 558.51 150.031 559.529 151.062C560.549 152.082 562.002 152.592 563.889 152.592C565.799 152.592 567.258 152.082 568.266 151.062C569.285 150.043 569.795 148.607 569.795 146.756V129.406H573.188ZM587.9 144.646H581.889V155H578.496V129.406H586.969C589.852 129.406 592.066 130.062 593.613 131.375C595.172 132.688 595.951 134.598 595.951 137.105C595.951 138.699 595.518 140.088 594.65 141.271C593.795 142.455 592.6 143.34 591.064 143.926L597.076 154.789V155H593.455L587.9 144.646ZM581.889 141.887H587.074C588.75 141.887 590.08 141.453 591.064 140.586C592.061 139.719 592.559 138.559 592.559 137.105C592.559 135.523 592.084 134.311 591.135 133.467C590.197 132.623 588.838 132.195 587.057 132.184H581.889V141.887ZM608.238 143.592C605.344 142.76 603.234 141.74 601.91 140.533C600.598 139.314 599.941 137.814 599.941 136.033C599.941 134.018 600.744 132.354 602.35 131.041C603.967 129.717 606.064 129.055 608.643 129.055C610.4 129.055 611.965 129.395 613.336 130.074C614.719 130.754 615.785 131.691 616.535 132.887C617.297 134.082 617.678 135.389 617.678 136.807H614.285C614.285 135.26 613.793 134.047 612.809 133.168C611.824 132.277 610.436 131.832 608.643 131.832C606.979 131.832 605.678 132.201 604.74 132.939C603.814 133.666 603.352 134.68 603.352 135.98C603.352 137.023 603.791 137.908 604.67 138.635C605.561 139.35 607.066 140.006 609.188 140.604C611.32 141.201 612.984 141.863 614.18 142.59C615.387 143.305 616.277 144.143 616.852 145.104C617.438 146.064 617.73 147.195 617.73 148.496C617.73 150.57 616.922 152.234 615.305 153.488C613.688 154.73 611.525 155.352 608.818 155.352C607.061 155.352 605.42 155.018 603.896 154.35C602.373 153.67 601.195 152.744 600.363 151.572C599.543 150.4 599.133 149.07 599.133 147.582H602.525C602.525 149.129 603.094 150.354 604.23 151.256C605.379 152.146 606.908 152.592 608.818 152.592C610.6 152.592 611.965 152.229 612.914 151.502C613.863 150.775 614.338 149.785 614.338 148.531C614.338 147.277 613.898 146.311 613.02 145.631C612.141 144.939 610.547 144.26 608.238 143.592ZM636.539 143.17H625.447V152.24H638.332V155H622.072V129.406H638.156V132.184H625.447V140.41H636.539V143.17Z" fill="black"/>
<defs>
<filter id="filter0_d" x="246" y="31" width="202" height="233" filterUnits="userSpaceOnUse" color-interpolation-filters="sRGB">
<feFlood flood-opacity="0" result="BackgroundImageFix"/>
<feColorMatrix in="SourceAlpha" type="matrix" values="0 0 0 0 0 0 0 0 0 0 0 0 0 0 0 0 0 0 127 0"/>
<feOffset dy="4"/>
<feGaussianBlur stdDeviation="2"/>
<feColorMatrix type="matrix" values="0 0 0 0 0 0 0 0 0 0 0 0 0 0 0 0 0 0 0.25 0"/>
<feBlend mode="normal" in2="BackgroundImageFix" result="effect1_dropShadow"/>
<feBlend mode="normal" in="SourceGraphic" in2="effect1_dropShadow" result="shape"/>
</filter>
<filter id="filter1_d" x="26" y="31" width="202" height="233" filterUnits="userSpaceOnUse" color-interpolation-filters="sRGB">
<feFlood flood-opacity="0" result="BackgroundImageFix"/>
<feColorMatrix in="SourceAlpha" type="matrix" values="0 0 0 0 0 0 0 0 0 0 0 0 0 0 0 0 0 0 127 0"/>
<feOffset dy="4"/>
<feGaussianBlur stdDeviation="2"/>
<feColorMatrix type="matrix" values="0 0 0 0 0 0 0 0 0 0 0 0 0 0 0 0 0 0 0.25 0"/>
<feBlend mode="normal" in2="BackgroundImageFix" result="effect1_dropShadow"/>
<feBlend mode="normal" in="SourceGraphic" in2="effect1_dropShadow" result="shape"/>
</filter>
<filter id="filter2_d" x="466" y="31" width="202" height="233" filterUnits="userSpaceOnUse" color-interpolation-filters="sRGB">
<feFlood flood-opacity="0" result="BackgroundImageFix"/>
<feColorMatrix in="SourceAlpha" type="matrix" values="0 0 0 0 0 0 0 0 0 0 0 0 0 0 0 0 0 0 127 0"/>
<feOffset dy="4"/>
<feGaussianBlur stdDeviation="2"/>
<feColorMatrix type="matrix" values="0 0 0 0 0 0 0 0 0 0 0 0 0 0 0 0 0 0 0.25 0"/>
<feBlend mode="normal" in2="BackgroundImageFix" result="effect1_dropShadow"/>
<feBlend mode="normal" in="SourceGraphic" in2="effect1_dropShadow" result="shape"/>
</filter>
</defs>
</svg>
